# xmcd CD database file
#
# Track frame offsets:
#	180
#	13084
#	25989
#	39351
#	53035
#	65613
#	79930
#	93553
#	108829
#	114659
#	127914
#	132316
#	145830
#	159525
#	173107
#	186683
#	199971
#	214573
#	228357
#	241585
#	255038
#	268606
#
# Disc length: 3748 seconds
#
# Revision: 0
# Processed by: cddbd v1.5.2PL0 Copyright (c) Steve Scherf et al.
# Submitted via: CDex 1.51
#
DISCID=2d0ea216
DTITLE=lester young - volume 5 - march and april 1944
DYEAR=1944
DGENRE=Jazz
TTITLE0=four o clock drag
TTITLE1=four o clock drag
TTITLE2=these foolish things
TTITLE3=exercise in swing
TTITLE4=exercise in swing
TTITLE5=exercise in swing
TTITLE6=exercise in swing
TTITLE7=salute to fats
TTITLE8=salute to fats
TTITLE9=salute to fats
TTITLE10=salute to fats
TTITLE11=salute to fats
TTITLE12=basie english
TTITLE13=basie english
TTITLE14=empty hearted
TTITLE15=circus in rhythm
TTITLE16=circus in rhythm
TTITLE17=circus in rhythm
TTITLE18=poor little plaything
TTITLE19=poor little plaything
TTITLE20=tush
TTITLE21=tush
EXTD=YEAR: 1944
EXTT0=
EXTT1=
EXTT2=
EXTT3=
EXTT4=
EXTT5=
EXTT6=
EXTT7=
EXTT8=
EXTT9=
EXTT10=
EXTT11=
EXTT12=
EXTT13=
EXTT14=
EXTT15=
EXTT16=
EXTT17=
EXTT18=
EXTT19=
EXTT20=
EXTT21=
PLAYORDER=
